<svg height="95px" viewBox="-95 0 512 512" width="95px" xmlns="http://www.w3.org/2000/svg"><path d="m311.699219 512h-301.894531c-5.414063 0-9.804688-4.390625-9.804688-9.804688v-447.589843c0-5.414063 4.390625-9.804688 9.804688-9.804688h301.890624c5.414063 0 9.804688 4.390625 9.804688 9.804688v447.589843c.003906 5.414063-4.386719 9.804688-9.800781 9.804688zm0 0" fill="#6990d7"/><path d="m288.828125 81.546875v393.707031c0 2.25-1.824219 4.066406-4.066406 4.066406h-248.019531c-2.242188 0-4.070313-1.816406-4.070313-4.066406v-393.707031c0-2.253906 1.828125-4.066406 4.070313-4.066406h248.019531c2.242187 0 4.066406 1.8125 4.066406 4.066406zm0 0" fill="#d2d2d7"/><path d="m288.828125 81.546875v393.707031c0 2.25-1.824219 4.066406-4.066406 4.066406h-216.730469c-2.242188 0-4.066406-1.816406-4.066406-4.066406v-393.707031c0-2.253906 1.824218-4.066406 4.066406-4.066406h216.730469c2.242187 0 4.066406 1.8125 4.066406 4.066406zm0 0" fill="#ebebf0"/><path d="m238.667969 51.765625v43.308594c0 3.839843-3.117188 6.957031-6.96875 6.957031h-141.898438c-3.847656 0-6.964843-3.117188-6.964843-6.957031v-43.308594c0-3.847656 3.117187-6.964844 6.964843-6.964844h26.152344c0-24.742187 20.054687-44.800781 44.796875-44.800781 5.507812 0 10.777344.992188 15.648438 2.816406 17.023437 6.339844 29.152343 22.75 29.152343 41.984375h26.148438c3.851562 0 6.96875 3.117188 6.96875 6.964844zm0 0" fill="#b9b9be"/><path d="m238.667969 51.765625v43.308594c0 3.84375-3.113281 6.957031-6.957031 6.957031h-110.617188c-3.847656 0-6.96875-3.117188-6.96875-6.964844v-43.300781c0-3.847656 3.121094-6.964844 6.96875-6.964844h19.929688c3.324218 0 6.164062-2.449219 6.585937-5.742187 2.136719-16.707032 13.484375-30.542969 28.785156-36.242188 17.023438 6.339844 29.15625 22.75 29.15625 41.984375h26.148438c3.847656 0 6.96875 3.117188 6.96875 6.964844zm0 0" fill="#d2d2d7"/><path d="m137.40625 274.023438h-63.542969c-4.066406 0-7.363281-3.292969-7.363281-7.359376v-63.546874c0-4.066407 3.296875-7.359376 7.363281-7.359376h63.542969c4.066406 0 7.363281 3.296876 7.363281 7.359376v63.546874c0 4.066407-3.296875 7.359376-7.363281 7.359376zm0 0" fill="#6990d7"/><path d="m247.640625 274.023438h-63.546875c-4.066406 0-7.359375-3.292969-7.359375-7.359376v-63.546874c0-4.066407 3.296875-7.359376 7.359375-7.359376h63.546875c4.066406 0 7.359375 3.296876 7.359375 7.359376v63.546874c0 4.066407-3.292969 7.359376-7.359375 7.359376zm0 0" fill="#6990d7"/><g fill="#7d8287"><path d="m66.5 138.996094h188.503906c4.320313 0 7.820313-3.503906 7.820313-7.824219s-3.5-7.820313-7.820313-7.820313h-188.503906c-4.320312 0-7.820312 3.5-7.820312 7.820313s3.5 7.824219 7.820312 7.824219zm0 0"/><path d="m66.5 170.78125h135.597656c4.320313 0 7.824219-3.503906 7.824219-7.824219 0-4.320312-3.503906-7.824219-7.824219-7.824219h-135.597656c-4.320312 0-7.820312 3.503907-7.820312 7.824219 0 4.320313 3.5 7.824219 7.820312 7.824219zm0 0"/><path d="m255 155.132812h-21.609375c-4.320313 0-7.824219 3.503907-7.824219 7.824219 0 4.320313 3.503906 7.824219 7.824219 7.824219h21.609375c4.320312 0 7.824219-3.503906 7.824219-7.824219 0-4.320312-3.503907-7.824219-7.824219-7.824219zm0 0"/><path d="m255 297.605469h-188.5c-4.320312 0-7.820312 3.503906-7.820312 7.824219 0 4.320312 3.5 7.820312 7.820312 7.820312h188.503906c4.320313 0 7.820313-3.5 7.820313-7.820312 0-4.320313-3.503907-7.824219-7.824219-7.824219zm0 0"/><path d="m255 329.386719h-135.597656c-4.320313 0-7.824219 3.503906-7.824219 7.824219 0 4.320312 3.503906 7.820312 7.824219 7.820312h135.597656c4.320312 0 7.824219-3.5 7.824219-7.820312 0-4.320313-3.503907-7.824219-7.824219-7.824219zm0 0"/><path d="m88.109375 329.386719h-21.609375c-4.320312 0-7.824219 3.503906-7.824219 7.824219 0 4.320312 3.503907 7.820312 7.824219 7.820312h21.609375c4.320313 0 7.824219-3.5 7.824219-7.820312 0-4.320313-3.5-7.824219-7.824219-7.824219zm0 0"/></g><path d="m137.40625 448.28125h-63.542969c-4.066406 0-7.363281-3.296875-7.363281-7.363281v-63.542969c0-4.066406 3.296875-7.363281 7.363281-7.363281h63.542969c4.066406 0 7.363281 3.296875 7.363281 7.363281v63.542969c0 4.066406-3.296875 7.363281-7.363281 7.363281zm0 0" fill="#6990d7"/><path d="m247.640625 448.28125h-63.546875c-4.066406 0-7.359375-3.296875-7.359375-7.363281v-63.542969c0-4.066406 3.296875-7.363281 7.359375-7.363281h63.546875c4.066406 0 7.359375 3.296875 7.359375 7.363281v63.542969c0 4.066406-3.292969 7.363281-7.359375 7.363281zm0 0" fill="#6990d7"/><path d="m149.1875 192.167969c-3.417969-2.644531-8.328125-2.019531-10.976562 1.394531l-31.941407 41.246094-7.5625-10.011719c-2.601562-3.445313-7.507812-4.132813-10.957031-1.527344-3.445312 2.601563-4.132812 7.507813-1.527344 10.957031l13.722656 18.175782c1.46875 1.945312 3.761719 3.09375 6.195313 3.109375h.050781c2.417969 0 4.703125-1.121094 6.183594-3.035157l38.207031-49.335937c2.648438-3.414063 2.023438-8.328125-1.394531-10.972656zm0 0" fill="#2e5aac"/><path d="m210.179688 252.402344c1.46875 1.945312 3.761718 3.09375 6.195312 3.109375h.050781c2.417969 0 4.703125-1.117188 6.183594-3.03125l38.207031-49.335938c2.644532-3.417969 2.019532-8.332031-1.394531-10.976562-3.417969-2.644531-8.332031-2.019531-10.976563 1.394531l-31.941406 41.246094-7.5625-10.011719c-2.601562-3.445313-7.507812-4.132813-10.957031-1.527344-3.445313 2.601563-4.132813 7.507813-1.527344 10.957031zm0 0" fill="#2e5aac"/><path d="m149.1875 366.421875c-3.417969-2.644531-8.328125-2.019531-10.976562 1.394531l-31.941407 41.25-7.5625-10.015625c-2.601562-3.445312-7.507812-4.132812-10.957031-1.527343-3.445312 2.601562-4.132812 7.507812-1.527344 10.957031l13.722656 18.175781c1.46875 1.945312 3.761719 3.09375 6.195313 3.109375h.050781c2.417969 0 4.703125-1.121094 6.183594-3.035156l38.207031-49.332031c2.648438-3.417969 2.023438-8.328126-1.394531-10.976563zm0 0" fill="#2e5aac"/><path d="m259.421875 366.421875c-3.417969-2.644531-8.332031-2.019531-10.976563 1.394531l-31.941406 41.25-7.5625-10.015625c-2.601562-3.445312-7.507812-4.132812-10.957031-1.527343-3.445313 2.601562-4.132813 7.507812-1.527344 10.957031l13.722657 18.175781c1.46875 1.945312 3.761718 3.09375 6.195312 3.109375h.050781c2.417969 0 4.703125-1.121094 6.183594-3.035156l38.207031-49.332031c2.644532-3.417969 2.019532-8.328126-1.394531-10.976563zm0 0" fill="#2e5aac"/></svg>